# Blender v2.92.0 OBJ File: 'Box.blend'
# www.blender.org
mtllib Boxsa.mtl
o Cube
v 1.000000 1.000000 -1.000000
v 1.000000 0.069097 -1.000000
v 1.000000 1.000000 1.000000
v 1.000000 0.069097 1.000000
v -1.000000 1.000000 -1.000000
v -1.000000 0.069097 -1.000000
v -1.000000 1.000000 1.000000
v -1.000000 0.069097 1.000000
vt 0.625000 0.500000
vt 0.875000 0.500000
vt 0.875000 0.750000
vt 0.625000 0.750000
vt 0.375000 1.000000
vt 0.375000 0.750000
vt 0.625000 0.000000
vt 0.375000 0.250000
vt 0.375000 0.000000
vt 0.375000 0.500000
vt 0.125000 0.750000
vt 0.125000 0.500000
vt 0.625000 0.250000
vt 0.625000 1.000000
vn 0.0000 1.0000 0.0000
vn 0.0000 0.0000 1.0000
vn -1.0000 0.0000 0.0000
vn 0.0000 -1.0000 0.0000
vn 1.0000 0.0000 0.0000
vn 0.0000 0.0000 -1.0000
usemtl Material
s off
f 1/1/1 5/2/1 7/3/1 3/4/1
f 3/4/2 8/5/2 4/6/2
f 7/7/3 6/8/3 8/9/3
f 2/10/4 8/11/4 6/12/4
f 1/1/5 4/6/5 2/10/5
f 5/13/6 2/10/6 6/8/6
f 3/4/2 7/14/2 8/5/2
f 7/7/3 5/13/3 6/8/3
f 2/10/4 4/6/4 8/11/4
f 1/1/5 3/4/5 4/6/5
f 5/13/6 1/1/6 2/10/6
o doun_円柱
v -1.000000 1.007712 -1.000000
v 1.000000 1.007712 -1.000000
v -1.000000 1.007712 1.000000
v 1.000000 1.007712 1.000000
v -1.000000 1.390395 0.923880
v 1.000000 1.390395 0.923880
v -1.000000 1.714819 0.707107
v 1.000000 1.714818 0.707107
v -1.000000 1.931592 0.382684
v 1.000000 1.931592 0.382684
v -1.000000 2.007712 -0.000000
v 1.000000 2.007712 -0.000000
v -1.000000 1.931592 -0.382684
v 1.000000 1.931591 -0.382684
v -1.000000 1.714819 -0.707107
v 1.000000 1.714818 -0.707107
v -1.000000 1.390395 -0.923880
v 1.000000 1.390395 -0.923880
vt 0.500000 1.000000
vt 0.437500 0.500000
vt 0.500000 0.500000
vt 0.437500 1.000000
vt 0.375000 0.500000
vt 0.375000 1.000000
vt 0.312500 1.000000
vt 0.312500 0.500000
vt 0.250000 1.000000
vt 0.250000 0.500000
vt 0.187500 0.500000
vt 0.187500 1.000000
vt 0.125000 0.500000
vt 0.158156 0.471731
vt 0.028269 0.341844
vt 0.028269 0.158156
vt 0.125000 1.000000
vt 0.062500 0.500000
vt 0.062500 1.000000
vt 0.000000 0.500000
vt 0.750000 0.490000
vt 0.528269 0.158156
vt 0.528269 0.341844
vt 0.250000 0.010000
vt 0.250000 0.490000
vt 0.080294 0.419706
vt 0.010000 0.250000
vt 0.080294 0.080294
vt 0.158156 0.028269
vt 0.000000 1.000000
vt 0.580294 0.419706
vt 0.658156 0.471731
vt 0.750000 0.010000
vt 0.658156 0.028269
vt 0.580294 0.080294
vt 0.510000 0.250000
vn 0.0000 0.1951 0.9808
vn 0.0000 0.5556 0.8315
vn 0.0000 0.8315 0.5556
vn 0.0000 0.9808 0.1951
vn 0.0000 0.9808 -0.1951
vn 0.0000 0.8315 -0.5556
vn 1.0000 0.0000 0.0000
vn 0.0000 0.5556 -0.8315
vn 0.0000 0.1951 -0.9808
vn -1.0000 0.0000 0.0000
usemtl マテリアル
s off
f 12/15/7 13/16/7 11/17/7
f 14/18/8 15/19/8 13/16/8
f 15/19/9 16/20/9 18/21/9 17/22/9
f 17/22/10 18/21/10 20/23/10 19/24/10
f 20/23/11 21/25/11 19/24/11
f 22/26/12 23/27/12 21/25/12
f 26/28/13 22/29/13 18/30/13
f 24/31/14 25/32/14 23/27/14
f 26/33/15 9/34/15 25/32/15
f 9/35/16 17/36/16 21/37/16
f 12/15/7 14/18/7 13/16/7
f 14/18/8 16/20/8 15/19/8
f 20/23/11 22/26/11 21/25/11
f 22/26/12 24/31/12 23/27/12
f 12/38/13 10/39/13 26/28/13
f 26/28/13 24/40/13 22/29/13
f 22/29/13 20/41/13 18/30/13
f 18/30/13 16/42/13 26/28/13
f 16/42/13 14/43/13 26/28/13
f 14/43/13 12/38/13 26/28/13
f 24/31/14 26/33/14 25/32/14
f 26/33/15 10/44/15 9/34/15
f 23/45/16 25/46/16 9/35/16
f 9/35/16 11/47/16 13/48/16
f 13/48/16 15/49/16 9/35/16
f 15/49/16 17/36/16 9/35/16
f 17/36/16 19/50/16 21/37/16
f 21/37/16 23/45/16 9/35/16
