# Blender v2.92.0 OBJ File: 'PoisonNife.blend'
# www.blender.org
mtllib Confusion.mtl
o nife_立方体
v -0.300004 2.769501 0.110620
v -0.155975 6.371837 0.110620
v -0.300004 2.769501 -0.110620
v -0.155975 6.371837 -0.110620
v 0.340938 2.791098 0.110620
v 0.175955 5.561827 0.110620
v 0.340938 2.791098 -0.110620
v 0.185336 5.562972 -0.110620
v -0.416908 5.500453 0.110620
v -0.417111 5.502115 -0.110620
v 0.289762 4.309880 0.110620
v 0.289762 4.309880 -0.110620
vt 0.625000 0.000000
vt 0.500000 0.250000
vt 0.500000 0.000000
vt 0.625000 0.500000
vt 0.500000 0.500000
vt 0.625000 0.750000
vt 0.500000 0.750000
vt 0.500000 1.000000
vt 0.375000 1.000000
vt 0.375000 0.500000
vt 0.125000 0.750000
vt 0.125000 0.500000
vt 0.875000 0.500000
vt 0.375000 0.250000
vt 0.375000 0.000000
vt 0.625000 0.250000
vt 0.375000 0.750000
vt 0.625000 1.000000
vt 0.875000 0.750000
vn -0.9580 0.2869 0.0030
vn -0.0000 0.0000 -1.0000
vn 0.9950 0.0904 0.0427
vn 0.0000 0.0000 1.0000
vn 0.0337 -0.9994 0.0000
vn 0.9206 0.3884 0.0410
vn -0.9991 -0.0428 0.0000
vn -0.9578 0.2876 0.0000
vn 0.9994 0.0337 0.0000
vn 0.9965 0.0830 0.0000
vn 0.9253 0.3792 0.0000
vn -0.9991 -0.0428 0.0006
usemtl NifeBody
s off
f 2/1/1 10/2/1 9/3/1
f 8/4/2 12/5/2 10/2/2
f 8/4/3 6/6/3 11/7/3
f 9/8/4 1/9/4 11/7/4
f 7/10/5 1/11/5 3/12/5
f 4/13/6 6/6/6 8/4/6
f 9/3/7 3/14/7 1/15/7
f 2/1/8 4/16/8 10/2/8
f 7/10/2 3/14/2 12/5/2
f 3/14/2 10/2/2 12/5/2
f 10/2/2 4/16/2 8/4/2
f 5/17/9 7/10/9 11/7/9
f 7/10/9 12/5/9 11/7/9
f 12/5/10 8/4/10 11/7/10
f 1/9/4 5/17/4 11/7/4
f 11/7/4 6/6/4 9/8/4
f 6/6/4 2/18/4 9/8/4
f 7/10/5 5/17/5 1/11/5
f 4/13/11 2/19/11 6/6/11
f 9/3/12 10/2/12 3/14/12
o root_立方体.001
v -0.283047 2.523843 0.110019
v -0.272185 2.767341 0.110019
v -0.286625 2.523407 -0.110019
v -0.272185 2.767341 -0.110019
v 0.299963 2.536068 0.110019
v 0.295553 2.777701 0.110019
v 0.299963 2.536068 -0.110019
v 0.295553 2.777701 -0.110019
v -0.247782 2.715429 0.110019
v -0.248565 2.721837 -0.110019
v -0.294774 2.672871 -0.110019
v -0.297889 2.670383 0.110019
v 0.261349 2.737466 0.110019
v 0.306639 2.685110 0.110019
v 0.261152 2.737062 -0.110019
v 0.307956 2.684195 -0.110019
vt 0.500000 0.250000
vt 0.625000 0.000000
vt 0.625000 0.250000
vt 0.541667 0.500000
vt 0.458333 0.500000
vt 0.500000 0.750000
vt 0.625000 0.500000
vt 0.625000 0.750000
vt 0.625000 1.000000
vt 0.500000 1.000000
vt 0.375000 0.500000
vt 0.125000 0.750000
vt 0.125000 0.500000
vt 0.875000 0.500000
vt 0.500000 0.000000
vt 0.437500 0.250000
vt 0.437500 0.000000
vt 0.375000 0.250000
vt 0.375000 0.000000
vt 0.437500 0.750000
vt 0.375000 0.750000
vt 0.375000 1.000000
vt 0.437500 1.000000
vt 0.875000 0.750000
vn -0.8876 -0.4607 0.0000
vn 0.0000 0.0000 -1.0000
vn 0.7619 -0.6477 0.0000
vn 0.0000 0.0000 1.0000
vn 0.0216 -0.9998 0.0016
vn -0.0182 0.9998 0.0000
vn -0.6686 0.7437 -0.0011
vn -0.9948 -0.1008 0.0164
vn 0.7487 0.6629 0.0017
vn 0.9985 -0.0539 0.0000
vn -0.9050 -0.4254 -0.0092
vn 0.7632 -0.6461 0.0005
vn 0.0210 -0.9998 0.0000
vn -0.7271 0.6862 0.0226
vn -0.9984 -0.0544 -0.0147
vn 0.7563 0.6542 -0.0019
vn 0.9990 -0.0447 0.0062
usemtl NifeGripCollor
s off
f 22/20/13 14/21/13 16/22/13
f 27/23/14 28/24/14 22/20/14
f 25/25/15 20/26/15 18/27/15
f 25/25/16 14/28/16 21/29/16
f 19/30/17 13/31/17 15/32/17
f 16/33/18 18/27/18 20/26/18
f 21/34/19 23/35/19 24/36/19
f 24/36/20 15/37/20 13/38/20
f 27/23/21 26/39/21 28/24/21
f 28/24/22 17/40/22 19/30/22
f 22/20/23 21/34/23 14/21/23
f 19/30/14 15/37/14 23/35/14
f 22/20/14 16/22/14 27/23/14
f 16/22/14 20/26/14 27/23/14
f 19/30/14 23/35/14 28/24/14
f 23/35/14 22/20/14 28/24/14
f 25/25/24 27/23/24 20/26/24
f 13/41/16 17/40/16 24/42/16
f 17/40/16 26/39/16 24/42/16
f 25/25/16 18/27/16 14/28/16
f 26/39/16 25/25/16 21/29/16
f 21/29/16 24/42/16 26/39/16
f 19/30/25 17/40/25 13/31/25
f 16/33/18 14/43/18 18/27/18
f 21/34/26 22/20/26 23/35/26
f 24/36/27 23/35/27 15/37/27
f 27/23/28 25/25/28 26/39/28
f 28/24/29 26/39/29 17/40/29
o grip_立方体.002
v -0.107169 -0.300351 0.081019
v -0.300472 2.536536 0.081019
v -0.229625 -0.130400 -0.160465
v -0.300472 2.536536 -0.160465
v 0.297442 -0.254370 0.081019
v 0.591738 2.504915 0.081019
v 0.301212 -0.253909 -0.160465
v 0.584589 2.495777 -0.160465
v -0.584803 2.447270 -0.160465
v -0.293612 1.750777 -0.160465
v -0.208655 0.433947 -0.160465
v -0.232814 -0.120335 0.081019
v -0.206254 0.448531 0.081019
v -0.289115 1.785378 0.081019
v -0.573874 2.379066 -0.160465
v -0.427759 2.376953 -0.160465
v -0.397417 2.348121 -0.160465
v -0.327875 2.268977 -0.160465
v -0.308517 2.194726 -0.160465
v 0.072459 -0.331625 -0.160465
v -0.102897 -0.295688 -0.160465
v -0.440547 2.362894 0.081019
v -0.569071 2.379945 0.081019
v -0.576633 2.450442 0.081019
v -0.321246 2.196254 0.081019
v -0.324075 2.266825 0.081019
v -0.380642 2.338797 0.081019
v 0.066960 -0.328628 0.081019
v 0.584084 2.409308 0.081019
v 0.458700 2.420543 0.081019
v 0.359545 2.352334 0.081019
v 0.308616 2.069622 0.081019
v 0.367999 1.695692 0.081019
v 0.312074 0.145126 0.081019
v 0.587226 2.410610 -0.160465
v 0.463507 2.420212 -0.160465
v 0.360987 2.331389 -0.160465
v 0.316199 2.070548 -0.160465
v 0.372018 1.685163 -0.160465
v 0.315306 0.145520 -0.160465
vt 0.609375 0.000000
vt 0.625000 0.250000
vt 0.562500 0.250000
vt 0.520833 0.250000
vt 0.589286 0.750000
vt 0.625000 0.500000
vt 0.625000 0.750000
vt 0.578125 1.000000
vt 0.574219 1.000000
vt 0.625000 1.000000
vt 0.291667 0.500000
vt 0.375000 0.750000
vt 0.250000 0.750000
vt 0.875000 0.750000
vt 0.541667 0.250000
vt 0.578125 0.000000
vt 0.515625 0.250000
vt 0.510417 0.250000
vt 0.574219 0.000000
vt 0.566406 0.000000
vt 0.505208 0.250000
vt 0.562500 0.000000
vt 0.500000 0.250000
vt 0.500000 0.000000
vt 0.437500 0.250000
vt 0.437500 0.000000
vt 0.375000 0.250000
vt 0.375000 0.000000
vt 0.125000 0.500000
vt 0.208333 0.500000
vt 0.125000 0.750000
vt 0.553571 0.500000
vt 0.553571 0.750000
vt 0.517857 0.500000
vt 0.517857 0.750000
vt 0.482143 0.500000
vt 0.482143 0.750000
vt 0.446429 0.750000
vt 0.446429 0.500000
vt 0.410714 0.750000
vt 0.410714 0.500000
vt 0.375000 0.500000
vt 0.625000 0.000000
vt 0.375000 0.333333
vt 0.375000 0.416667
vt 0.589286 0.500000
vt 0.375000 0.875000
vt 0.500000 1.000000
vt 0.437500 1.000000
vt 0.375000 1.000000
vt 0.570312 1.000000
vt 0.566406 1.000000
vt 0.562500 1.000000
vt 0.609375 1.000000
vt 0.593750 1.000000
vt 0.875000 0.500000
vt 0.593750 0.000000
vt 0.570312 0.000000
vn -0.2995 0.9541 -0.0024
vn 0.0000 0.0000 -1.0000
vn 0.9965 -0.0798 -0.0265
vn 0.0000 0.0000 1.0000
vn 0.3066 -0.9516 0.0188
vn 0.0354 0.9986 -0.0388
vn -0.9868 -0.1581 0.0355
vn -0.0144 -0.9982 -0.0589
vn -0.6867 -0.7227 -0.0784
vn -0.7509 -0.6598 0.0267
vn -0.9665 -0.2520 -0.0494
vn -0.9992 -0.0335 0.0234
vn -0.9978 -0.0644 0.0138
vn -0.9992 0.0371 -0.0147
vn -0.8199 -0.5723 0.0130
vn -0.7933 -0.6083 -0.0258
vn -0.1603 -0.9868 -0.0219
vn -0.0892 -0.9960 -0.0004
vn 0.5652 -0.8216 0.0746
vn 0.9837 -0.1772 0.0302
vn 0.9871 0.1568 0.0316
vn 0.9992 -0.0368 0.0133
vn 0.9992 -0.0366 0.0155
vn -0.2976 0.9547 0.0000
vn 0.9994 0.0310 0.0132
vn 0.3217 -0.9468 0.0032
vn 0.0460 0.9989 0.0000
vn -0.9941 -0.1066 0.0202
vn -0.1315 -0.9913 0.0062
vn -0.3732 -0.9277 -0.0099
vn -0.7862 -0.6179 0.0069
vn -0.9991 -0.0400 0.0154
vn -0.9956 -0.0779 -0.0520
vn -0.9977 -0.0618 0.0274
vn -0.9989 0.0466 0.0071
vn -0.2008 -0.9796 0.0076
vn -0.0774 -0.9970 -0.0064
vn 0.6547 -0.7557 0.0141
vn 0.9854 -0.1692 0.0206
vn 0.9896 0.1433 0.0102
vn 0.9992 -0.0360 0.0182
vn 0.9993 -0.0353 0.0133
usemtl NifeGripCollor
s off
f 52/44/30 32/45/30 37/46/30
f 44/47/31 37/46/31 32/45/31
f 57/48/32 36/49/32 34/50/32
f 50/51/33 55/52/33 30/53/33
f 48/54/34 33/55/34 56/56/34
f 36/49/35 30/57/35 34/50/35
f 43/58/36 52/44/36 37/46/36
f 50/59/37 43/58/37 44/47/37
f 45/60/38 50/59/38 44/47/38
f 46/61/39 55/62/39 45/60/39
f 53/63/40 46/61/40 47/64/40
f 42/65/41 47/64/41 38/66/41
f 41/67/42 38/66/42 39/68/42
f 40/69/43 39/68/43 31/70/43
f 29/71/44 40/69/44 31/70/44
f 31/72/45 49/73/45 29/74/45
f 49/73/46 56/56/46 29/74/46
f 64/75/47 57/48/47 58/76/47
f 65/77/48 58/76/48 59/78/48
f 66/79/49 59/78/49 60/80/49
f 61/81/50 66/79/50 60/80/50
f 67/82/51 62/83/51 68/84/51
f 35/85/52 62/83/52 33/55/52
f 52/44/53 30/86/53 32/45/53
f 49/87/31 31/70/31 39/68/31
f 39/68/31 38/66/31 66/79/31
f 38/66/31 47/64/31 66/79/31
f 49/87/31 39/68/31 48/88/31
f 68/84/31 39/68/31 67/82/31
f 35/85/31 48/88/31 68/84/31
f 68/84/31 48/88/31 39/68/31
f 66/79/31 67/82/31 39/68/31
f 66/79/31 47/64/31 32/45/31
f 47/64/31 46/61/31 32/45/31
f 65/77/31 66/79/31 32/45/31
f 46/61/31 45/60/31 32/45/31
f 36/49/31 63/89/31 64/75/31
f 64/75/31 65/77/31 32/45/31
f 44/47/31 43/58/31 37/46/31
f 45/60/31 44/47/31 32/45/31
f 32/45/31 36/49/31 64/75/31
f 57/48/54 63/89/54 36/49/54
f 56/90/33 33/55/33 62/83/33
f 62/83/33 61/81/33 41/91/33
f 61/81/33 60/80/33 41/91/33
f 56/90/33 62/83/33 41/91/33
f 40/92/33 29/93/33 41/91/33
f 29/93/33 56/90/33 41/91/33
f 54/94/33 53/95/33 30/53/33
f 53/95/33 42/96/33 30/53/33
f 42/96/33 41/91/33 60/80/33
f 42/96/33 60/80/33 30/53/33
f 60/80/33 59/78/33 30/53/33
f 58/76/33 57/48/33 34/50/33
f 59/78/33 58/76/33 30/53/33
f 55/52/33 54/94/33 30/53/33
f 58/76/33 34/50/33 30/53/33
f 30/53/33 52/97/33 50/51/33
f 52/97/33 51/98/33 50/51/33
f 48/54/55 35/85/55 33/55/55
f 36/49/56 32/99/56 30/57/56
f 43/58/57 51/100/57 52/44/57
f 50/59/58 51/100/58 43/58/58
f 45/60/59 55/62/59 50/59/59
f 46/61/60 54/101/60 55/62/60
f 53/63/61 54/101/61 46/61/61
f 42/65/62 53/63/62 47/64/62
f 41/67/63 42/65/63 38/66/63
f 40/69/64 41/67/64 39/68/64
f 49/73/65 48/54/65 56/56/65
f 64/75/66 63/89/66 57/48/66
f 65/77/67 64/75/67 58/76/67
f 66/79/68 65/77/68 59/78/68
f 61/81/69 67/82/69 66/79/69
f 67/82/70 61/81/70 62/83/70
f 35/85/71 68/84/71 62/83/71
