# Blender v2.92.0 OBJ File: ''
# www.blender.org
mtllib nife.mtl
o 立方体
v -1.799531 -0.046114 0.214771
v -1.702875 -0.025114 0.212694
v -2.173454 0.124146 0.228575
v -2.104253 -0.106088 0.161342
v -1.950967 -0.187803 0.215534
v -2.102669 -0.107083 0.221401
v 0.460194 0.504709 0.107439
v 0.185886 0.229377 0.108391
v -0.089060 0.472702 0.121249
v 0.771023 0.506349 0.159370
v 0.463807 0.498977 0.167335
v -0.033009 -0.037458 0.108072
v 0.053438 -0.024696 0.166199
v -0.031946 -0.043871 0.168020
v 0.184390 0.579662 0.176584
v 0.769433 0.507726 0.099320
v 0.182614 0.574627 0.116391
v -2.004208 -0.194054 0.156677
v -1.948619 -0.183956 0.155437
v -1.888841 -0.122542 0.215385
v -1.888175 -0.115185 0.155412
v -1.801967 -0.047147 0.154688
v -1.710085 -0.020531 0.152866
v -0.119238 -0.098836 0.108948
v -0.118543 -0.104799 0.168916
v -0.161590 -0.107094 0.109880
v -0.159872 -0.105042 0.170005
v -0.263303 0.038277 0.115905
v -0.265117 0.039765 0.176111
v -0.372873 0.098084 0.180301
v -0.656560 0.029893 0.126126
v -0.658952 0.033183 0.186389
v -0.945343 -0.042454 0.192238
v -1.229989 -0.057967 0.199420
v -0.946251 -0.040240 0.132189
v -1.513874 -0.061639 0.146728
v -1.514197 -0.058449 0.206934
v -1.230422 -0.063308 0.139185
v -1.028541 0.531494 0.207596
v -1.030177 0.531267 0.147511
v -0.087376 0.474531 0.181370
v -1.975849 0.376869 0.229136
v -1.977439 0.378246 0.169085
v -2.156200 0.006560 0.165299
v -2.175045 0.125522 0.168525
v -2.155352 0.254134 0.170951
v -0.367386 0.102051 0.120123
v 0.052097 -0.014730 0.106339
v -2.140940 0.252393 0.230654
v -2.152588 0.000828 0.225196
v -1.997701 -0.193043 0.216651
v 0.176583 0.212610 0.168377
vt 0.375000 0.243056
vt 0.375000 0.239583
vt 0.500000 0.250000
vt 0.375000 0.500000
vt 0.375000 0.250000
vt 0.406250 0.250000
vt 0.500000 0.750000
vt 0.437500 0.750000
vt 0.625000 0.562500
vt 0.625000 1.000000
vt 0.500000 1.000000
vt 0.375000 0.729167
vt 0.125000 0.750000
vt 0.125000 0.718750
vt 0.875000 0.625000
vt 0.625000 0.750000
vt 0.625000 0.625000
vt 0.125000 0.500000
vt 0.375000 0.510417
vt 0.375000 0.520833
vt 0.125000 0.503472
vt 0.375000 0.526042
vt 0.375000 0.531250
vt 0.125000 0.506944
vt 0.375000 0.541667
vt 0.125000 0.510417
vt 0.375000 0.708333
vt 0.125000 0.687500
vt 0.375000 0.666667
vt 0.125000 0.625000
vt 0.375000 0.645833
vt 0.125000 0.593750
vt 0.125000 0.562500
vt 0.375000 0.583333
vt 0.125000 0.552083
vt 0.125000 0.541667
vt 0.125000 0.531250
vt 0.375000 0.569444
vt 0.375000 0.555556
vt 0.125000 0.520833
vt 0.375000 0.562500
vt 0.375000 0.125000
vt 0.375000 0.062500
vt 0.375000 0.156250
vt 0.875000 0.531250
vt 0.625000 0.531250
vt 0.875000 0.562500
vt 0.875000 0.500000
vt 0.625000 0.500000
vt 0.437500 0.500000
vt 0.500000 0.500000
vt 0.562500 0.500000
vt 0.375000 0.625000
vt 0.375000 0.750000
vt 0.875000 0.750000
vt 0.375000 0.229167
vt 0.375000 0.218750
vt 0.625000 0.187500
vt 0.625000 0.218750
vt 0.625000 0.250000
vt 0.562500 0.250000
vt 0.437500 0.250000
vt 0.375000 0.246528
vt 0.390625 0.250000
vt 0.375000 0.031250
vt 0.375000 0.000000
vt 0.437500 0.000000
vt 0.375000 0.187500
vt 0.500000 0.000000
vt 0.625000 0.000000
vt 0.625000 0.125000
vt 0.375000 0.197917
vt 0.375000 0.208333
vt 0.375000 1.000000
vt 0.437500 1.000000
vn 0.0265 -0.0229 0.9994
vn -0.4698 -0.8828 -0.0022
vn -0.0265 0.0229 -0.9994
vn 0.0214 -0.9951 -0.0965
vn 0.2157 -0.9705 -0.1076
vn 0.1104 0.9902 -0.0861
vn 0.1772 -0.9826 -0.0560
vn 0.7242 -0.6894 -0.0158
vn 0.6194 -0.7850 -0.0116
vn 0.2092 -0.9728 -0.0997
vn 0.5760 -0.8119 -0.0956
vn 0.5732 -0.8146 -0.0891
vn 0.5726 -0.8151 -0.0877
vn 0.0068 -0.9994 0.0339
vn -0.8091 -0.5876 -0.0098
vn -0.4757 -0.8796 0.0074
vn 0.2221 -0.9731 0.0619
vn 0.2560 -0.9646 0.0628
vn 0.0534 -0.9979 -0.0376
vn -0.1722 -0.9837 0.0512
vn 0.0040 -0.9961 0.0883
vn 0.0620 0.9981 -0.0055
vn -0.3515 0.9360 -0.0186
vn -0.1588 0.9869 0.0268
vn 0.1245 0.9920 0.0194
vn -0.8178 -0.5740 0.0430
vn 0.0595 0.9977 -0.0320
vn -0.3610 0.9301 -0.0672
vn -0.1611 0.9869 0.0007
vn -0.9072 -0.4203 0.0170
vn -0.9073 -0.4201 0.0166
vn -0.9077 -0.4193 0.0150
vn -0.9849 -0.1678 0.0433
vn -0.9432 0.2353 0.2345
vn -0.6015 0.7982 0.0342
vn -0.9873 -0.1570 0.0226
vn -0.5637 0.8104 0.1597
vn -0.9881 0.1507 0.0296
vn -0.9078 -0.4191 0.0146
vn -0.5227 -0.8462 -0.1034
vn 0.2411 -0.9696 -0.0419
vn 0.2343 -0.9714 -0.0394
vn 0.0827 -0.9927 0.0874
vn -0.2063 -0.9772 -0.0500
vn -0.0045 -0.9986 0.0529
vn 0.8839 -0.4578 -0.0960
vn 0.8769 -0.4806 0.0017
vn 0.7040 -0.7017 -0.1096
vn 0.0091 -0.9997 -0.0232
vn 0.7031 -0.7056 -0.0882
vn 0.2514 -0.9538 -0.1644
vn -0.5357 -0.6386 0.5524
vn 0.6475 -0.7573 -0.0857
vn 0.7491 -0.6585 -0.0725
vn 0.2783 -0.9605 0.0052
vn 0.5765 -0.8113 -0.0970
vn 0.1883 -0.9771 -0.0993
usemtl マテリアル.001
s 1
f 1/1/1 2/2/1 3/3/1
f 4/4/2 5/5/2 6/6/2
f 7/7/3 8/8/3 9/9/3
f 10/10/4 11/11/4 7/7/4
f 12/12/5 13/13/5 14/14/5
f 15/15/6 16/16/6 17/17/6
f 5/18/7 18/19/7 19/20/7
f 18/19/3 4/4/3 19/20/3
f 20/21/8 5/18/8 19/20/8
f 21/22/9 22/23/9 1/24/9
f 1/24/10 23/25/10 2/26/10
f 24/27/11 14/14/12 25/28/13
f 26/29/14 25/28/14 27/30/14
f 28/31/15 27/30/15 29/32/15
f 30/33/16 28/31/16 29/32/16
f 31/34/17 30/33/17 32/35/17
f 33/36/18 31/34/18 32/35/18
f 34/37/19 35/38/19 33/36/19
f 2/26/20 36/39/20 37/40/20
f 37/40/21 38/41/21 34/37/21
f 27/42/1 25/43/1 29/44/1
f 39/45/22 9/9/22 40/46/22
f 41/47/23 17/17/23 9/9/23
f 42/48/24 40/46/24 43/49/24
f 19/20/3 4/4/3 21/22/3
f 4/4/3 44/50/3 21/22/3
f 44/50/3 45/51/3 22/23/3
f 45/51/3 46/52/3 23/25/3
f 22/23/3 45/51/3 23/25/3
f 46/52/3 43/49/3 35/38/3
f 43/49/3 40/46/3 47/53/3
f 43/49/3 47/53/3 31/34/3
f 40/46/3 9/9/3 8/8/3
f 47/53/3 40/46/3 8/8/3
f 21/22/3 44/50/3 22/23/3
f 38/41/3 36/39/3 23/25/3
f 23/25/3 46/52/3 38/41/3
f 35/38/3 43/49/3 31/34/3
f 35/38/3 38/41/3 46/52/3
f 24/27/3 26/29/3 28/31/3
f 12/12/3 24/27/3 28/31/3
f 12/12/3 28/31/3 48/54/3
f 28/31/3 47/53/3 48/54/3
f 8/8/3 48/54/3 47/53/3
f 17/17/3 16/16/3 7/7/3
f 17/17/3 7/7/3 9/9/3
f 15/15/25 10/55/25 16/16/25
f 28/31/26 26/29/26 27/30/26
f 39/45/27 41/47/27 9/9/27
f 41/47/28 15/15/28 17/17/28
f 42/48/29 39/45/29 40/46/29
f 37/56/1 34/57/1 2/2/1
f 34/57/1 41/58/1 39/59/1
f 42/60/1 34/57/1 39/59/1
f 42/60/1 49/61/1 34/57/1
f 49/61/1 3/3/1 2/2/1
f 3/3/1 50/62/1 1/1/1
f 50/62/1 6/6/1 20/63/1
f 6/6/1 51/64/1 5/5/1
f 6/6/1 5/5/1 20/63/1
f 49/61/1 2/2/1 34/57/1
f 50/62/1 20/63/1 1/1/1
f 6/6/30 50/62/31 4/4/32
f 50/62/33 3/3/33 44/50/33
f 3/3/34 49/61/34 46/52/34
f 49/61/35 42/60/35 43/49/35
f 3/3/36 45/51/36 44/50/36
f 43/49/37 46/52/37 49/61/37
f 46/52/38 45/51/38 3/3/38
f 50/62/31 44/50/39 4/4/32
f 30/33/40 47/53/40 28/31/40
f 31/34/41 47/53/41 30/33/41
f 33/36/42 35/38/42 31/34/42
f 34/37/43 38/41/43 35/38/43
f 2/26/44 23/25/44 36/39/44
f 37/40/45 36/39/45 38/41/45
f 14/65/1 13/66/1 29/44/1
f 13/66/1 52/67/1 30/68/1
f 29/44/1 13/66/1 30/68/1
f 11/69/1 10/70/1 15/71/1
f 25/43/1 14/65/1 29/44/1
f 52/67/1 11/69/1 41/58/1
f 11/69/1 15/71/1 41/58/1
f 41/58/1 34/57/1 32/72/1
f 52/67/1 41/58/1 30/68/1
f 34/57/1 33/73/1 32/72/1
f 32/72/1 30/68/1 41/58/1
f 13/74/46 48/54/46 52/75/46
f 48/54/47 8/8/47 52/75/47
f 8/8/48 7/7/48 11/11/48
f 7/7/49 16/16/49 10/10/49
f 8/8/50 11/11/50 52/75/50
f 12/12/51 48/54/51 13/13/51
f 5/18/52 4/4/52 18/19/52
f 1/24/53 20/21/53 21/22/53
f 20/21/54 19/20/54 21/22/54
f 1/24/55 22/23/55 23/25/55
f 24/27/11 12/12/56 14/14/12
f 26/29/57 24/27/57 25/28/57
o nife_立方体.001
v 0.142423 0.196178 0.145663
v 0.805748 0.520256 0.133083
v 0.461109 0.533229 0.142506
v 0.451272 0.523548 0.107107
v 0.148660 0.197192 0.107639
v 1.830405 -0.047156 0.057508
v 0.777944 -0.088716 0.084423
v 1.763787 0.269373 0.066527
v 2.194192 0.084171 0.086324
v 2.193255 0.084982 0.050929
v 1.832053 -0.046332 0.092921
v 1.472095 -0.101680 0.101184
v 1.109213 0.454437 0.088102
v 0.796207 0.520775 0.097910
v 0.411795 -0.047736 0.095058
v 0.053525 -0.001823 0.105596
v 1.469923 -0.097698 0.065895
v 1.764911 0.275004 0.102065
v 0.781623 -0.086419 0.119816
v 0.054313 -0.007788 0.140876
v 1.114413 0.452430 0.123355
vt 0.500000 0.250000
vt 0.625000 0.187500
vt 0.625000 0.250000
vt 0.625000 0.500000
vt 0.500000 0.500000
vt 0.375000 0.718750
vt 0.375000 0.625000
vt 0.625000 0.750000
vt 0.375000 1.000000
vt 0.375000 0.750000
vt 0.125000 0.708333
vt 0.125000 0.666667
vt 0.625000 0.625000
vt 0.625000 0.562500
vt 0.875000 0.562500
vt 0.375000 0.562500
vt 0.375000 0.500000
vt 0.375000 0.687500
vt 0.625000 1.000000
vt 0.125000 0.583333
vt 0.125000 0.500000
vt 0.125000 0.750000
vt 0.625000 0.125000
vt 0.625000 0.000000
vt 0.375000 0.000000
vt 0.375000 0.041667
vt 0.375000 0.083333
vt 0.375000 0.166667
vt 0.375000 0.250000
vt 0.875000 0.500000
vt 0.875000 0.625000
vt 0.875000 0.750000
vn 0.0276 -0.0237 0.9993
vn 0.0270 -0.0164 0.9995
vn 0.0267 -0.0159 0.9995
vn -0.7331 0.6798 0.0178
vn -0.0265 0.0229 -0.9994
vn 0.3948 0.9187 0.0106
vn 0.1523 -0.9882 0.0159
vn 0.2059 0.9777 -0.0414
vn 0.3965 0.9047 -0.1559
vn -0.1064 -0.9937 0.0364
vn -0.1301 -0.9781 -0.1625
vn -0.1087 -0.9912 0.0756
vn -0.0112 -0.9978 0.0659
vn 0.1351 -0.9836 -0.1193
vn 0.3423 -0.9396 0.0059
vn 0.3384 -0.9405 -0.0305
vn -0.0249 -0.9936 -0.1106
vn 0.0276 -0.0178 0.9995
vn 0.0278 -0.0186 0.9994
vn 0.0281 -0.0200 0.9994
vn 0.0272 -0.0272 0.9993
vn 0.0272 -0.0278 0.9992
vn 0.0255 -0.0337 0.9991
vn 0.0263 -0.0320 0.9991
vn 0.0260 -0.0326 0.9991
vn 0.0252 -0.0343 0.9991
vn -0.8987 0.4287 0.0925
vn -0.9080 0.3955 -0.1384
vn -0.7234 0.6831 -0.1004
vn 0.0084 0.9999 0.0125
vn 0.0288 0.9621 -0.2711
vn 0.2153 0.9763 0.0238
vn 0.2636 0.9645 0.0160
vn 0.2637 0.9514 -0.1591
usemtl マテリアル
s 1
f 53/76/58 54/77/59 55/78/60
f 55/78/61 56/79/61 57/80/61
f 58/81/62 59/82/62 57/80/62
f 60/83/63 61/84/63 62/85/63
f 58/81/64 63/86/64 64/87/64
f 65/88/65 66/89/65 54/90/65
f 67/91/62 68/92/62 57/80/62
f 57/80/62 56/79/62 65/88/62
f 56/79/62 66/89/62 65/88/62
f 65/88/62 60/83/62 57/80/62
f 60/83/62 62/85/62 57/80/62
f 62/85/62 58/81/62 57/80/62
f 58/81/62 69/93/62 59/82/62
f 59/82/62 67/91/62 57/80/62
f 60/83/66 70/94/66 61/84/66
f 71/95/67 72/96/67 67/91/67
f 72/96/68 68/92/68 67/91/68
f 67/91/69 59/82/69 71/95/69
f 59/82/70 69/93/70 71/95/70
f 69/93/71 58/81/71 64/87/71
f 58/81/72 62/85/72 63/86/72
f 62/85/73 61/97/73 63/86/73
f 69/93/74 64/87/74 71/95/74
f 53/76/58 73/98/75 54/77/59
f 70/99/76 73/98/75 53/76/58
f 61/100/77 70/99/76 53/76/58
f 63/101/78 61/100/77 53/76/58
f 64/102/79 63/101/78 53/76/58
f 71/103/80 64/102/81 53/76/82
f 72/104/83 71/103/80 53/76/82
f 68/92/84 72/104/84 57/80/84
f 72/104/85 53/76/85 57/80/85
f 53/76/86 55/78/86 57/80/86
f 66/89/87 56/79/87 54/90/87
f 56/79/88 55/105/88 54/90/88
f 54/90/89 73/106/89 65/88/89
f 73/106/90 70/107/90 65/88/90
f 70/107/91 60/83/91 65/88/91
