# Blender v2.92.0 OBJ File: 'LeftDoorver2.blend'
# www.blender.org
mtllib RightDoor.mtl
o CenterBoard.001_立方体.023
v -0.205845 0.033224 1.817980
v -0.192990 2.764432 1.818258
v -0.225293 0.033224 2.177565
v -0.200781 2.764432 2.178096
v -0.611246 0.033224 1.809203
v -0.624938 3.294728 1.808906
v -0.609793 0.033224 2.169241
v -0.632728 3.294728 2.168744
v -0.188703 1.724183 1.818351
v -0.250157 1.697865 2.177027
v -0.209651 3.298716 1.817897
v -0.217442 3.298716 2.177735
vt 0.625000 0.250000
vt 0.500000 0.250000
vt 0.500000 0.000000
vt 0.625000 0.500000
vt 0.375000 0.500000
vt 0.375000 0.750000
vt 0.625000 0.875000
vt 0.625000 1.000000
vt 0.500000 1.000000
vt 0.125000 0.500000
vt 0.125000 0.750000
vt 0.875000 0.500000
vt 0.750000 0.750000
vt 0.750000 0.500000
vt 0.625000 0.750000
vt 0.375000 0.250000
vt 0.375000 0.000000
vt 0.625000 0.000000
vt 0.625000 0.375000
vt 0.375000 1.000000
vt 0.875000 0.750000
vn 0.9852 -0.0458 0.1654
vn -0.0216 -0.0000 0.9998
vn -1.0000 -0.0070 0.0040
vn 0.0216 0.0000 -0.9998
vn 0.0000 -1.0000 -0.0000
vn 0.9993 0.0312 0.0216
vn -0.0096 1.0000 -0.0002
vn 0.9984 0.0149 0.0540
vn 0.9857 -0.0100 0.1682
vn 0.9998 0.0041 0.0216
vn -0.0217 -0.0000 0.9998
vn -0.9998 -0.0042 -0.0216
usemtl BoadCOlor.001
s off
f 4/1/1 10/2/1 9/3/1
f 8/4/2 7/5/2 10/2/2
f 8/4/3 5/6/3 7/5/3
f 11/7/4 2/8/4 9/9/4
f 3/10/5 5/6/5 1/11/5
f 4/12/6 11/13/6 12/14/6
f 12/14/7 6/15/7 8/4/7
f 3/16/8 1/17/8 10/2/8
f 1/17/9 9/3/9 10/2/9
f 9/3/10 2/18/10 4/1/10
f 7/5/2 3/16/2 10/2/2
f 10/2/11 4/1/11 12/19/11
f 12/19/2 8/4/2 10/2/2
f 8/4/12 6/15/12 5/6/12
f 1/20/4 5/6/4 9/9/4
f 5/6/4 6/15/4 9/9/4
f 6/15/4 11/7/4 9/9/4
f 3/10/5 7/5/5 5/6/5
f 4/12/6 2/21/6 11/13/6
f 12/14/7 11/13/7 6/15/7
o LeftBoard.001_立方体.022
v 0.983654 0.033224 1.843733
v 0.853801 2.592185 1.840921
v 0.964206 0.033224 2.203318
v 0.846010 2.592185 2.200759
v 0.624760 0.033224 1.835963
v 0.657574 2.716586 1.836673
v 0.626212 0.033224 2.196000
v 0.649783 2.716586 2.196511
v 0.966562 1.724183 1.843363
v 0.905108 1.697865 2.202039
vt 0.500000 0.250000
vt 0.375000 0.250000
vt 0.500000 0.000000
vt 0.625000 0.250000
vt 0.625000 0.500000
vt 0.375000 0.500000
vt 0.625000 0.750000
vt 0.375000 0.750000
vt 0.625000 1.000000
vt 0.500000 1.000000
vt 0.375000 1.000000
vt 0.125000 0.500000
vt 0.125000 0.750000
vt 0.875000 0.500000
vt 0.375000 0.000000
vt 0.625000 0.000000
vt 0.875000 0.750000
vn 0.9846 0.0351 0.1713
vn -0.0216 -0.0000 0.9998
vn -0.9999 0.0122 0.0040
vn 0.0216 0.0000 -0.9998
vn 0.0000 -1.0000 0.0000
vn 0.5352 0.8446 0.0116
vn 0.9985 0.0101 0.0540
vn 0.9760 0.1273 0.1766
vn 0.9976 0.0660 0.0216
vn -0.9997 0.0088 -0.0216
usemtl BoadCOlor.001
s off
f 22/22/13 15/23/13 21/24/13
f 16/25/14 20/26/14 19/27/14
f 19/27/15 18/28/15 17/29/15
f 14/30/16 21/31/16 13/32/16
f 15/33/17 17/29/17 13/34/17
f 16/35/18 18/28/18 20/26/18
f 15/23/19 13/36/19 21/24/19
f 21/24/20 14/37/20 22/22/20
f 14/37/21 16/25/21 22/22/21
f 19/27/14 15/23/14 22/22/14
f 22/22/14 16/25/14 19/27/14
f 19/27/22 20/26/22 18/28/22
f 13/32/16 17/29/16 14/30/16
f 17/29/16 18/28/16 14/30/16
f 15/33/17 19/27/17 17/29/17
f 16/35/18 14/38/18 18/28/18
o LeftUnderBlock.001_立方体.021
v 1.268562 0.591694 1.818387
v 1.275021 1.266596 1.818527
v 1.259407 0.591694 2.241223
v 1.265866 1.266596 2.241363
v 0.983621 0.591694 1.812218
v 0.983621 1.266596 1.812218
v 0.974467 0.591694 2.235054
v 0.974467 1.266596 2.235054
vt 0.625000 0.000000
vt 0.375000 0.250000
vt 0.375000 0.000000
vt 0.625000 0.500000
vt 0.375000 0.500000
vt 0.375000 0.750000
vt 0.625000 0.750000
vt 0.375000 1.000000
vt 0.125000 0.750000
vt 0.125000 0.500000
vt 0.875000 0.500000
vt 0.625000 0.250000
vt 0.625000 1.000000
vt 0.875000 0.750000
vn 0.9997 -0.0096 0.0216
vn -0.0216 0.0000 0.9998
vn -0.9998 0.0000 -0.0216
vn 0.0216 0.0000 -0.9998
vn 0.0000 -1.0000 0.0000
vn 0.0000 1.0000 -0.0000
usemtl BlockColor.001
s off
f 24/39/23 25/40/23 23/41/23
f 25/40/24 30/42/24 29/43/24
f 30/42/25 27/44/25 29/43/25
f 28/45/26 23/46/26 27/44/26
f 29/43/27 23/47/27 25/48/27
f 26/49/28 28/45/28 30/42/28
f 24/39/23 26/50/23 25/40/23
f 25/40/24 26/50/24 30/42/24
f 30/42/25 28/45/25 27/44/25
f 28/45/26 24/51/26 23/46/26
f 29/43/27 27/44/27 23/47/27
f 26/49/28 24/52/28 28/45/28
o LeftUnderBlocks.001_立方体.020
v 1.263025 -0.052902 1.818267
v 1.263025 0.589697 1.818267
v 1.253870 -0.052902 2.241103
v 1.253870 0.589697 2.241103
v 0.983621 -0.052902 1.812218
v 0.983621 0.589697 1.812218
v 0.974466 -0.052902 2.235054
v 0.974466 0.589697 2.235054
vt 0.625000 0.000000
vt 0.375000 0.250000
vt 0.375000 0.000000
vt 0.625000 0.250000
vt 0.375000 0.500000
vt 0.625000 0.500000
vt 0.375000 0.750000
vt 0.625000 0.750000
vt 0.375000 1.000000
vt 0.125000 0.750000
vt 0.125000 0.500000
vt 0.875000 0.500000
vt 0.625000 1.000000
vt 0.875000 0.750000
vn 0.9998 0.0000 0.0216
vn -0.0216 0.0000 0.9998
vn -0.9998 0.0000 -0.0216
vn 0.0216 0.0000 -0.9998
vn 0.0000 -1.0000 0.0000
vn 0.0000 1.0000 0.0000
usemtl BlockColor.001
s off
f 32/53/29 33/54/29 31/55/29
f 34/56/30 37/57/30 33/54/30
f 38/58/31 35/59/31 37/57/31
f 36/60/32 31/61/32 35/59/32
f 37/57/33 31/62/33 33/63/33
f 34/64/34 36/60/34 38/58/34
f 32/53/29 34/56/29 33/54/29
f 34/56/30 38/58/30 37/57/30
f 38/58/31 36/60/31 35/59/31
f 36/60/32 32/65/32 31/61/32
f 37/57/33 35/59/33 31/62/33
f 34/64/34 32/66/34 36/60/34
o LeftUnderBlockss.001_立方体.019
v 1.251434 1.269516 1.841945
v 1.251434 1.971922 1.841945
v 1.242280 1.269516 2.264781
v 1.242280 1.971922 2.264781
v 1.005249 1.269516 1.836615
v 0.972030 1.912115 1.835896
v 0.996095 1.269516 2.259451
v 0.962876 1.912115 2.258731
vt 0.625000 0.000000
vt 0.375000 0.250000
vt 0.375000 0.000000
vt 0.625000 0.250000
vt 0.375000 0.500000
vt 0.625000 0.500000
vt 0.375000 0.750000
vt 0.625000 1.000000
vt 0.375000 1.000000
vt 0.125000 0.750000
vt 0.125000 0.500000
vt 0.875000 0.500000
vt 0.625000 0.750000
vt 0.875000 0.750000
vn 0.9998 0.0000 0.0216
vn -0.0216 0.0000 0.9998
vn -0.9984 -0.0516 -0.0216
vn 0.0216 0.0000 -0.9998
vn 0.0000 -1.0000 -0.0000
vn -0.2092 0.9779 -0.0045
usemtl BlockColor.001
s off
f 40/67/35 41/68/35 39/69/35
f 42/70/36 45/71/36 41/68/36
f 46/72/37 43/73/37 45/71/37
f 43/73/38 40/74/38 39/75/38
f 45/71/39 39/76/39 41/77/39
f 42/78/40 44/79/40 46/72/40
f 40/67/35 42/70/35 41/68/35
f 42/70/36 46/72/36 45/71/36
f 46/72/37 44/79/37 43/73/37
f 43/73/38 44/79/38 40/74/38
f 45/71/39 43/73/39 39/76/39
f 42/78/40 40/80/40 44/79/40
o LeftUnderBlocksss.001_立方体.018
v 1.268438 1.974439 1.818384
v 1.061282 2.737057 1.813900
v 1.259284 1.974439 2.241220
v 1.052128 2.737057 2.236735
v 0.981119 1.912052 1.812164
v 0.854986 2.564177 1.809433
v 0.971964 1.912052 2.234999
v 0.845832 2.564177 2.232269
vt 0.625000 0.000000
vt 0.375000 0.250000
vt 0.375000 0.000000
vt 0.625000 0.250000
vt 0.375000 0.500000
vt 0.625000 0.500000
vt 0.375000 0.750000
vt 0.625000 1.000000
vt 0.375000 1.000000
vt 0.125000 0.750000
vt 0.125000 0.500000
vt 0.875000 0.500000
vt 0.625000 0.750000
vt 0.875000 0.750000
vn 0.9648 0.2622 0.0209
vn -0.0216 0.0000 0.9998
vn -0.9816 -0.1899 -0.0213
vn 0.0216 0.0000 -0.9998
vn 0.2121 -0.9772 0.0046
vn -0.6421 0.7665 -0.0139
usemtl BlockColor.001
s off
f 48/81/41 49/82/41 47/83/41
f 50/84/42 53/85/42 49/82/42
f 54/86/43 51/87/43 53/85/43
f 51/87/44 48/88/44 47/89/44
f 53/85/45 47/90/45 49/91/45
f 50/92/46 52/93/46 54/86/46
f 48/81/41 50/84/41 49/82/41
f 50/84/42 54/86/42 53/85/42
f 54/86/43 52/93/43 51/87/43
f 51/87/44 52/93/44 48/88/44
f 53/85/45 51/87/45 47/90/45
f 50/92/46 48/94/46 52/93/46
o LeftUnderBlockssss.001_立方体.017
v 1.056094 2.759262 1.813787
v 0.516219 3.260235 1.802099
v 1.046940 2.759262 2.236623
v 0.507065 3.260235 2.224934
v 0.846433 2.566258 1.809248
v 0.389503 3.025938 1.799356
v 0.837278 2.566258 2.232084
v 0.380348 3.025938 2.222191
vt 0.625000 0.000000
vt 0.375000 0.250000
vt 0.375000 0.000000
vt 0.625000 0.250000
vt 0.375000 0.500000
vt 0.625000 0.500000
vt 0.375000 0.750000
vt 0.625000 1.000000
vt 0.375000 1.000000
vt 0.125000 0.750000
vt 0.125000 0.500000
vt 0.875000 0.500000
vt 0.625000 0.750000
vt 0.875000 0.750000
vn 0.6800 0.7331 0.0147
vn -0.0216 -0.0000 0.9998
vn -0.7090 -0.7051 -0.0153
vn 0.0216 0.0000 -0.9998
vn 0.6770 -0.7358 0.0147
vn -0.8793 0.4758 -0.0190
usemtl BlockColor.001
s off
f 56/95/47 57/96/47 55/97/47
f 58/98/48 61/99/48 57/96/48
f 62/100/49 59/101/49 61/99/49
f 59/101/50 56/102/50 55/103/50
f 61/99/51 55/104/51 57/105/51
f 58/106/52 60/107/52 62/100/52
f 56/95/47 58/98/47 57/96/47
f 58/98/48 62/100/48 61/99/48
f 62/100/49 60/107/49 59/101/49
f 59/101/50 60/107/50 56/102/50
f 61/99/51 59/101/51 55/104/51
f 58/106/52 56/108/52 60/107/52
o LeftUnderBlocksssss.001_立方体.016
v 0.529047 3.263524 1.802377
v -0.167798 3.580877 1.787290
v 0.519893 3.263524 2.225212
v -0.176952 3.580877 2.210125
v 0.372478 3.034377 1.798987
v -0.210308 3.290221 1.786370
v 0.363323 3.034377 2.221823
v -0.219462 3.290221 2.209205
vt 0.625000 0.000000
vt 0.375000 0.250000
vt 0.375000 0.000000
vt 0.625000 0.250000
vt 0.375000 0.500000
vt 0.625000 0.500000
vt 0.375000 0.750000
vt 0.625000 1.000000
vt 0.375000 1.000000
vt 0.125000 0.750000
vt 0.125000 0.500000
vt 0.875000 0.500000
vt 0.625000 0.750000
vt 0.875000 0.750000
vn 0.4143 0.9101 0.0090
vn -0.0216 0.0000 0.9998
vn -0.4018 -0.9157 -0.0087
vn 0.0216 -0.0000 -0.9998
vn 0.8254 -0.5642 0.0179
vn -0.9892 0.1447 -0.0214
usemtl BlockColor.001
s off
f 64/109/53 65/110/53 63/111/53
f 66/112/54 69/113/54 65/110/54
f 70/114/55 67/115/55 69/113/55
f 67/115/56 64/116/56 63/117/56
f 69/113/57 63/118/57 65/119/57
f 66/120/58 68/121/58 70/114/58
f 64/109/53 66/112/53 65/110/53
f 66/112/54 70/114/54 69/113/54
f 70/114/55 68/121/55 67/115/55
f 67/115/56 68/121/56 64/116/56
f 69/113/57 67/115/57 63/118/57
f 66/120/58 64/122/58 68/121/58
o LeftUnderBlockssssss.001_立方体.015
v -0.170829 3.596595 1.787224
v -0.936477 3.557021 1.770648
v -0.179983 3.596595 2.210060
v -0.945632 3.557021 2.193484
v -0.216125 3.322767 1.786244
v -0.852417 3.308787 1.772468
v -0.225279 3.322767 2.209079
v -0.861572 3.308787 2.195303
vt 0.625000 0.000000
vt 0.375000 0.250000
vt 0.375000 0.000000
vt 0.625000 0.250000
vt 0.375000 0.500000
vt 0.625000 0.500000
vt 0.375000 0.750000
vt 0.625000 1.000000
vt 0.375000 1.000000
vt 0.125000 0.750000
vt 0.125000 0.500000
vt 0.875000 0.500000
vt 0.625000 0.750000
vt 0.875000 0.750000
vn -0.0516 0.9987 -0.0011
vn -0.0216 -0.0000 0.9998
vn 0.0220 -0.9998 0.0005
vn 0.0216 -0.0000 -0.9998
vn 0.9864 -0.1632 0.0214
vn -0.9469 -0.3208 -0.0205
usemtl BlockColor.001
s off
f 72/123/59 73/124/59 71/125/59
f 74/126/60 77/127/60 73/124/60
f 78/128/61 75/129/61 77/127/61
f 75/129/62 72/130/62 71/131/62
f 77/127/63 71/132/63 73/133/63
f 74/134/64 76/135/64 78/128/64
f 72/123/59 74/126/59 73/124/59
f 74/126/60 78/128/60 77/127/60
f 78/128/61 76/135/61 75/129/61
f 75/129/62 76/135/62 72/130/62
f 77/127/63 75/129/63 71/132/63
f 74/134/64 72/136/64 76/135/64
o MidleBoard.001_立方体.013
v 0.637913 0.033224 1.836247
v 0.650767 2.764432 1.836526
v 0.618465 0.033224 2.195833
v 0.642977 2.764432 2.196363
v 0.232512 0.033224 1.827470
v 0.218820 3.075433 1.827174
v 0.233964 0.033224 2.187508
v 0.211029 3.075433 2.187012
v 0.655055 1.724183 1.836618
v 0.593601 1.697865 2.195294
v 0.414862 2.999676 1.831418
v 0.407072 2.999676 2.191256
vt 0.625000 0.250000
vt 0.500000 0.250000
vt 0.500000 0.000000
vt 0.625000 0.375000
vt 0.375000 0.500000
vt 0.625000 0.500000
vt 0.375000 0.750000
vt 0.375000 1.000000
vt 0.625000 0.875000
vt 0.500000 1.000000
vt 0.125000 0.500000
vt 0.125000 0.750000
vt 0.875000 0.500000
vt 0.750000 0.750000
vt 0.750000 0.500000
vt 0.625000 0.750000
vt 0.375000 0.250000
vt 0.375000 0.000000
vt 0.625000 0.000000
vt 0.625000 1.000000
vt 0.875000 0.750000
vn 0.9852 -0.0458 0.1654
vn -0.0216 -0.0000 0.9998
vn -1.0000 -0.0075 0.0040
vn 0.0216 -0.0000 -0.9998
vn 0.0000 -1.0000 -0.0000
vn 0.7059 0.7082 0.0153
vn 0.3603 0.9328 0.0078
vn 0.9984 0.0149 0.0540
vn 0.9857 -0.0100 0.1682
vn 0.9998 0.0041 0.0216
vn -0.9998 -0.0045 -0.0216
usemtl BoadCOlor.001
s off
f 82/137/65 88/138/65 87/139/65
f 88/138/66 90/140/66 85/141/66
f 86/142/67 83/143/67 85/141/67
f 79/144/68 89/145/68 87/146/68
f 81/147/69 83/143/69 79/148/69
f 82/149/70 89/150/70 90/151/70
f 90/151/71 84/152/71 86/142/71
f 81/153/72 79/154/72 88/138/72
f 79/154/73 87/139/73 88/138/73
f 87/139/74 80/155/74 82/137/74
f 85/141/66 81/153/66 88/138/66
f 88/138/66 82/137/66 90/140/66
f 90/140/66 86/142/66 85/141/66
f 86/142/75 84/152/75 83/143/75
f 79/144/68 83/143/68 89/145/68
f 83/143/68 84/152/68 89/145/68
f 89/145/68 80/156/68 87/146/68
f 81/147/69 85/141/69 83/143/69
f 82/149/70 80/157/70 89/150/70
f 90/151/71 89/150/71 84/152/71
o MidleBoards.001_立方体.012
v 0.212712 0.033224 1.827042
v 0.225567 2.764432 1.827320
v 0.193264 0.033224 2.186627
v 0.217776 2.764432 2.187158
v -0.192689 0.033224 1.818265
v -0.206381 3.288083 1.817968
v -0.191236 0.033224 2.178303
v -0.214171 3.288083 2.177806
v 0.229854 1.724183 1.827413
v 0.168400 1.697865 2.186089
v 0.222193 3.079420 1.827247
v 0.214403 3.079420 2.187085
vt 0.625000 0.250000
vt 0.500000 0.250000
vt 0.500000 0.000000
vt 0.625000 0.500000
vt 0.375000 0.500000
vt 0.375000 0.750000
vt 0.625000 1.000000
vt 0.500000 1.000000
vt 0.625000 0.750000
vt 0.125000 0.500000
vt 0.125000 0.750000
vt 0.875000 0.500000
vt 0.750000 0.750000
vt 0.750000 0.500000
vt 0.375000 0.250000
vt 0.375000 0.000000
vt 0.625000 0.000000
vt 0.625000 0.375000
vt 0.375000 1.000000
vt 0.625000 0.875000
vt 0.875000 0.750000
vn 0.9852 -0.0458 0.1654
vn -0.0216 -0.0000 0.9998
vn -1.0000 -0.0070 0.0040
vn 0.0216 0.0000 -0.9998
vn 0.0000 -1.0000 0.0000
vn 0.9997 0.0107 0.0216
vn 0.4376 0.8991 0.0095
vn 0.9984 0.0149 0.0540
vn 0.9857 -0.0100 0.1682
vn 0.9998 0.0041 0.0216
vn -0.9998 -0.0042 -0.0216
usemtl BoadCOlor.001
s off
f 94/158/76 100/159/76 99/160/76
f 98/161/77 97/162/77 100/159/77
f 98/161/78 95/163/78 97/162/78
f 92/164/79 99/165/79 96/166/79
f 93/167/80 95/163/80 91/168/80
f 94/169/81 101/170/81 102/171/81
f 102/171/82 96/166/82 98/161/82
f 93/172/83 91/173/83 100/159/83
f 91/173/84 99/160/84 100/159/84
f 99/160/85 92/174/85 94/158/85
f 97/162/77 93/172/77 100/159/77
f 100/159/77 94/158/77 102/175/77
f 102/175/77 98/161/77 100/159/77
f 98/161/86 96/166/86 95/163/86
f 91/176/79 95/163/79 99/165/79
f 95/163/79 96/166/79 99/165/79
f 96/166/79 101/177/79 92/164/79
f 93/167/80 97/162/80 95/163/80
f 94/169/81 92/178/81 101/170/81
f 102/171/82 101/170/82 96/166/82
