# Blender v2.92.0 OBJ File: 'Walker.blend'
# www.blender.org
mtllib Walker.mtl
o head_Cube
v 0.930200 3.620414 1.485279
v 0.930200 2.739430 1.485279
v -0.901555 3.620414 1.521058
v -0.901555 2.739430 1.521058
v 0.908640 3.620414 0.381504
v 0.908640 2.739430 0.381504
v -0.923115 3.620414 0.417283
v -0.923115 2.739430 0.417283
vt 0.875000 0.500000
vt 0.625000 0.750000
vt 0.625000 0.500000
vt 0.375000 1.000000
vt 0.375000 0.750000
vt 0.625000 0.000000
vt 0.375000 0.250000
vt 0.375000 0.000000
vt 0.375000 0.500000
vt 0.125000 0.750000
vt 0.125000 0.500000
vt 0.625000 0.250000
vt 0.875000 0.750000
vt 0.625000 1.000000
vn 0.0000 1.0000 0.0000
vn -0.9998 0.0000 0.0195
vn -0.0195 0.0000 -0.9998
vn 0.0000 -1.0000 0.0000
vn 0.0195 0.0000 0.9998
vn 0.9998 0.0000 -0.0195
usemtl Material
s off
f 5/1/1 3/2/1 1/3/1
f 3/2/2 8/4/2 4/5/2
f 7/6/3 6/7/3 8/8/3
f 2/9/4 8/10/4 6/11/4
f 1/3/5 4/5/5 2/9/5
f 5/12/6 2/9/6 6/7/6
f 5/1/1 7/13/1 3/2/1
f 3/2/2 7/14/2 8/4/2
f 7/6/3 5/12/3 6/7/3
f 2/9/4 4/5/4 8/10/4
f 1/3/5 3/2/5 4/5/5
f 5/12/6 1/3/6 2/9/6
o body_立方体
v 0.468505 1.234106 0.463691
v 0.468505 2.647734 0.463691
v 0.487191 1.234106 1.420342
v 0.487191 2.647734 1.420342
v -0.480106 1.234106 0.482220
v -0.480106 2.647734 0.482220
v -0.461420 1.234106 1.438871
v -0.461420 2.647734 1.438871
vt 0.625000 0.000000
vt 0.375000 0.250000
vt 0.375000 0.000000
vt 0.625000 0.250000
vt 0.375000 0.500000
vt 0.625000 0.500000
vt 0.375000 0.750000
vt 0.625000 0.750000
vt 0.375000 1.000000
vt 0.125000 0.750000
vt 0.125000 0.500000
vt 0.875000 0.500000
vt 0.625000 1.000000
vt 0.875000 0.750000
vn 0.9998 0.0000 -0.0195
vn 0.0195 0.0000 0.9998
vn -0.9998 0.0000 0.0195
vn -0.0195 0.0000 -0.9998
vn 0.0000 -1.0000 -0.0000
vn 0.0000 1.0000 0.0000
usemtl body
s off
f 10/15/7 11/16/7 9/17/7
f 12/18/8 15/19/8 11/16/8
f 16/20/9 13/21/9 15/19/9
f 14/22/10 9/23/10 13/21/10
f 15/19/11 9/24/11 11/25/11
f 12/26/12 14/22/12 16/20/12
f 10/15/7 12/18/7 11/16/7
f 12/18/8 16/20/8 15/19/8
f 16/20/9 14/22/9 13/21/9
f 14/22/10 10/27/10 9/23/10
f 15/19/11 13/21/11 9/24/11
f 12/26/12 10/28/12 14/22/12
o Leftleg_立方体.001
v -0.068807 0.189898 0.555584
v -0.068807 1.273020 0.555584
v -0.053300 0.189898 1.349501
v -0.053300 1.273020 1.349501
v -0.483748 0.189898 0.563689
v -0.483748 1.273020 0.563689
v -0.468241 0.189898 1.357606
v -0.468241 1.273020 1.357606
vt 0.625000 0.000000
vt 0.375000 0.250000
vt 0.375000 0.000000
vt 0.625000 0.250000
vt 0.375000 0.500000
vt 0.625000 0.500000
vt 0.375000 0.750000
vt 0.625000 0.750000
vt 0.375000 1.000000
vt 0.125000 0.750000
vt 0.125000 0.500000
vt 0.875000 0.500000
vt 0.625000 1.000000
vt 0.875000 0.750000
vn 0.9998 0.0000 -0.0195
vn 0.0195 0.0000 0.9998
vn -0.9998 0.0000 0.0195
vn -0.0195 0.0000 -0.9998
vn 0.0000 -1.0000 -0.0000
vn 0.0000 1.0000 0.0000
usemtl マテリアル.003
s off
f 18/29/13 19/30/13 17/31/13
f 20/32/14 23/33/14 19/30/14
f 24/34/15 21/35/15 23/33/15
f 22/36/16 17/37/16 21/35/16
f 23/33/17 17/38/17 19/39/17
f 20/40/18 22/36/18 24/34/18
f 18/29/13 20/32/13 19/30/13
f 20/32/14 24/34/14 23/33/14
f 24/34/15 22/36/15 21/35/15
f 22/36/16 18/41/16 17/37/16
f 23/33/17 21/35/17 17/38/17
f 20/40/18 18/42/18 22/36/18
o Rightleg_立方体.002
v 0.466858 0.189898 0.496626
v 0.466858 1.273020 0.496626
v 0.484259 0.189898 1.387496
v 0.484259 1.273020 1.387496
v 0.051917 0.189898 0.504731
v 0.051917 1.273020 0.504731
v 0.069318 0.189898 1.395601
v 0.069318 1.273020 1.395601
vt 0.625000 0.000000
vt 0.375000 0.250000
vt 0.375000 0.000000
vt 0.625000 0.250000
vt 0.375000 0.500000
vt 0.625000 0.500000
vt 0.375000 0.750000
vt 0.625000 0.750000
vt 0.375000 1.000000
vt 0.125000 0.750000
vt 0.125000 0.500000
vt 0.875000 0.500000
vt 0.625000 1.000000
vt 0.875000 0.750000
vn 0.9998 0.0000 -0.0195
vn 0.0195 0.0000 0.9998
vn -0.9998 0.0000 0.0195
vn -0.0195 0.0000 -0.9998
vn 0.0000 -1.0000 -0.0000
vn 0.0000 1.0000 -0.0000
usemtl マテリアル.004
s off
f 26/43/19 27/44/19 25/45/19
f 28/46/20 31/47/20 27/44/20
f 32/48/21 29/49/21 31/47/21
f 30/50/22 25/51/22 29/49/22
f 31/47/23 25/52/23 27/53/23
f 28/54/24 30/50/24 32/48/24
f 26/43/19 28/46/19 27/44/19
f 28/46/20 32/48/20 31/47/20
f 32/48/21 30/50/21 29/49/21
f 30/50/22 26/55/22 25/51/22
f 31/47/23 29/49/23 25/52/23
f 28/54/24 26/56/24 30/50/24
o LeftArm_立方体.003
v -0.505105 2.510779 -1.095074
v -0.471994 2.508164 0.600042
v -0.505117 2.120202 -1.095676
v -0.472006 2.117586 0.599439
v -0.825977 2.510779 -1.088806
v -0.792866 2.508164 0.606309
v -0.825988 2.120202 -1.089408
v -0.792878 2.117586 0.605707
vt 0.625000 0.000000
vt 0.375000 0.250000
vt 0.375000 0.000000
vt 0.625000 0.250000
vt 0.375000 0.500000
vt 0.625000 0.500000
vt 0.375000 0.750000
vt 0.625000 0.750000
vt 0.375000 1.000000
vt 0.125000 0.750000
vt 0.125000 0.500000
vt 0.875000 0.500000
vt 0.625000 1.000000
vt 0.875000 0.750000
vn 0.9998 -0.0000 -0.0195
vn -0.0000 -1.0000 -0.0015
vn -0.9998 0.0000 0.0195
vn 0.0000 1.0000 0.0015
vn -0.0195 0.0015 -0.9998
vn 0.0195 -0.0015 0.9998
usemtl マテリアル.002
s off
f 34/57/25 35/58/25 33/59/25
f 36/60/26 39/61/26 35/58/26
f 40/62/27 37/63/27 39/61/27
f 38/64/28 33/65/28 37/63/28
f 39/61/29 33/66/29 35/67/29
f 36/68/30 38/64/30 40/62/30
f 34/57/25 36/60/25 35/58/25
f 36/60/26 40/62/26 39/61/26
f 40/62/27 38/64/27 37/63/27
f 38/64/28 34/69/28 33/65/28
f 39/61/29 37/63/29 33/66/29
f 36/68/30 34/70/30 38/64/30
o RightArm_立方体.004
v 0.747587 2.510779 -1.119542
v 0.780697 2.508164 0.575573
v 0.747575 2.120202 -1.120144
v 0.780686 2.117586 0.574971
v 0.426715 2.510779 -1.113274
v 0.459825 2.508164 0.581841
v 0.426703 2.120202 -1.113877
v 0.459814 2.117586 0.581238
vt 0.625000 0.000000
vt 0.375000 0.250000
vt 0.375000 0.000000
vt 0.625000 0.250000
vt 0.375000 0.500000
vt 0.625000 0.500000
vt 0.375000 0.750000
vt 0.625000 0.750000
vt 0.375000 1.000000
vt 0.125000 0.750000
vt 0.125000 0.500000
vt 0.875000 0.500000
vt 0.625000 1.000000
vt 0.875000 0.750000
vn 0.9998 -0.0000 -0.0195
vn -0.0000 -1.0000 -0.0015
vn -0.9998 0.0000 0.0195
vn 0.0000 1.0000 0.0015
vn -0.0195 0.0015 -0.9998
vn 0.0195 -0.0015 0.9998
usemtl マテリアル.001
s off
f 42/71/31 43/72/31 41/73/31
f 44/74/32 47/75/32 43/72/32
f 48/76/33 45/77/33 47/75/33
f 46/78/34 41/79/34 45/77/34
f 47/75/35 41/80/35 43/81/35
f 44/82/36 46/78/36 48/76/36
f 42/71/31 44/74/31 43/72/31
f 44/74/32 48/76/32 47/75/32
f 48/76/33 46/78/33 45/77/33
f 46/78/34 42/83/34 41/79/34
f 47/75/35 45/77/35 41/80/35
f 44/82/36 42/84/36 46/78/36
o LeftEye_立方体.006
v 0.410076 3.146554 0.344490
v 0.410076 3.502124 0.344490
v 0.412499 3.146554 0.468557
v 0.412499 3.502124 0.468557
v 0.190856 3.146554 0.348772
v 0.190856 3.502124 0.348772
v 0.193280 3.146554 0.472839
v 0.193280 3.502124 0.472839
vt 0.625000 0.000000
vt 0.375000 0.250000
vt 0.375000 0.000000
vt 0.625000 0.250000
vt 0.375000 0.500000
vt 0.625000 0.500000
vt 0.375000 0.750000
vt 0.625000 0.750000
vt 0.375000 1.000000
vt 0.125000 0.750000
vt 0.125000 0.500000
vt 0.875000 0.500000
vt 0.625000 1.000000
vt 0.875000 0.750000
vn 0.9998 0.0000 -0.0195
vn 0.0195 0.0000 0.9998
vn -0.9998 0.0000 0.0195
vn -0.0195 0.0000 -0.9998
vn 0.0000 -1.0000 -0.0000
vn 0.0000 1.0000 -0.0000
usemtl マテリアル.005
s off
f 50/85/37 51/86/37 49/87/37
f 52/88/38 55/89/38 51/86/38
f 56/90/39 53/91/39 55/89/39
f 54/92/40 49/93/40 53/91/40
f 55/89/41 49/94/41 51/95/41
f 52/96/42 54/92/42 56/90/42
f 50/85/37 52/88/37 51/86/37
f 52/88/38 56/90/38 55/89/38
f 56/90/39 54/92/39 53/91/39
f 54/92/40 50/97/40 49/93/40
f 55/89/41 53/91/41 49/94/41
f 52/96/42 50/98/42 54/92/42
o Leftinside_立方体.007
v 0.358742 3.199061 0.301515
v 0.358742 3.449616 0.301515
v 0.361166 3.199061 0.425582
v 0.361166 3.449616 0.425582
v 0.240472 3.199061 0.303825
v 0.240472 3.449616 0.303825
v 0.242895 3.199061 0.427892
v 0.242895 3.449616 0.427892
vt 0.625000 0.000000
vt 0.375000 0.250000
vt 0.375000 0.000000
vt 0.625000 0.250000
vt 0.375000 0.500000
vt 0.625000 0.500000
vt 0.375000 0.750000
vt 0.625000 0.750000
vt 0.375000 1.000000
vt 0.125000 0.750000
vt 0.125000 0.500000
vt 0.875000 0.500000
vt 0.625000 1.000000
vt 0.875000 0.750000
vn 0.9998 0.0000 -0.0195
vn 0.0195 0.0000 0.9998
vn -0.9998 0.0000 0.0195
vn -0.0195 0.0000 -0.9998
vn 0.0000 -1.0000 0.0000
vn 0.0000 1.0000 -0.0000
usemtl マテリアル
s off
f 58/99/43 59/100/43 57/101/43
f 60/102/44 63/103/44 59/100/44
f 64/104/45 61/105/45 63/103/45
f 62/106/46 57/107/46 61/105/46
f 63/103/47 57/108/47 59/109/47
f 60/110/48 62/106/48 64/104/48
f 58/99/43 60/102/43 59/100/43
f 60/102/44 64/104/44 63/103/44
f 64/104/45 62/106/45 61/105/45
f 62/106/46 58/111/46 57/107/46
f 63/103/47 61/105/47 57/108/47
f 60/110/48 58/112/48 62/106/48
o Rightinside_立方体.009
v -0.182782 3.146554 0.356070
v -0.182782 3.502124 0.356070
v -0.180359 3.146554 0.480137
v -0.180359 3.502124 0.480137
v -0.402001 3.146554 0.360352
v -0.402001 3.502124 0.360352
v -0.399578 3.146554 0.484419
v -0.399578 3.502124 0.484419
vt 0.625000 0.000000
vt 0.375000 0.250000
vt 0.375000 0.000000
vt 0.625000 0.250000
vt 0.375000 0.500000
vt 0.625000 0.500000
vt 0.375000 0.750000
vt 0.625000 0.750000
vt 0.375000 1.000000
vt 0.125000 0.750000
vt 0.125000 0.500000
vt 0.875000 0.500000
vt 0.625000 1.000000
vt 0.875000 0.750000
vn 0.9998 0.0000 -0.0195
vn 0.0195 0.0000 0.9998
vn -0.9998 0.0000 0.0195
vn -0.0195 0.0000 -0.9998
vn 0.0000 -1.0000 -0.0000
vn 0.0000 1.0000 -0.0000
usemtl マテリアル.006
s off
f 66/113/49 67/114/49 65/115/49
f 68/116/50 71/117/50 67/114/50
f 72/118/51 69/119/51 71/117/51
f 70/120/52 65/121/52 69/119/52
f 71/117/53 65/122/53 67/123/53
f 68/124/54 70/120/54 72/118/54
f 66/113/49 68/116/49 67/114/49
f 68/116/50 72/118/50 71/117/50
f 72/118/51 70/120/51 69/119/51
f 70/120/52 66/125/52 65/121/52
f 71/117/53 69/119/53 65/122/53
f 68/124/54 66/126/54 70/120/54
o RightEye_立方体.008
v -0.234115 3.199061 0.313095
v -0.234115 3.449616 0.313095
v -0.231692 3.199061 0.437162
v -0.231692 3.449616 0.437162
v -0.352386 3.199061 0.315405
v -0.352386 3.449616 0.315405
v -0.349962 3.199061 0.439472
v -0.349962 3.449616 0.439472
vt 0.625000 0.000000
vt 0.375000 0.250000
vt 0.375000 0.000000
vt 0.625000 0.250000
vt 0.375000 0.500000
vt 0.625000 0.500000
vt 0.375000 0.750000
vt 0.625000 0.750000
vt 0.375000 1.000000
vt 0.125000 0.750000
vt 0.125000 0.500000
vt 0.875000 0.500000
vt 0.625000 1.000000
vt 0.875000 0.750000
vn 0.9998 0.0000 -0.0195
vn 0.0195 0.0000 0.9998
vn -0.9998 0.0000 0.0195
vn -0.0195 0.0000 -0.9998
vn 0.0000 -1.0000 -0.0000
vn 0.0000 1.0000 0.0000
usemtl eye
s off
f 74/127/55 75/128/55 73/129/55
f 76/130/56 79/131/56 75/128/56
f 80/132/57 77/133/57 79/131/57
f 78/134/58 73/135/58 77/133/58
f 79/131/59 73/136/59 75/137/59
f 76/138/60 78/134/60 80/132/60
f 74/127/55 76/130/55 75/128/55
f 76/130/56 80/132/56 79/131/56
f 80/132/57 78/134/57 77/133/57
f 78/134/58 74/139/58 73/135/58
f 79/131/59 77/133/59 73/136/59
f 76/138/60 74/140/60 78/134/60
o mouth_立方体.010
v 0.135451 3.057639 0.305876
v -0.180100 3.057001 0.312040
v 0.137874 3.057639 0.429944
v -0.177676 3.057001 0.436107
v 0.135748 2.910328 0.305870
v -0.179802 2.909690 0.312034
v 0.138172 2.910328 0.429938
v -0.177379 2.909690 0.436101
vt 0.625000 0.000000
vt 0.375000 0.250000
vt 0.375000 0.000000
vt 0.625000 0.250000
vt 0.375000 0.500000
vt 0.625000 0.500000
vt 0.375000 0.750000
vt 0.625000 0.750000
vt 0.375000 1.000000
vt 0.125000 0.750000
vt 0.125000 0.500000
vt 0.875000 0.500000
vt 0.625000 1.000000
vt 0.875000 0.750000
vn -0.0020 1.0000 0.0000
vn 0.0195 0.0000 0.9998
vn 0.0020 -1.0000 -0.0000
vn -0.0195 -0.0000 -0.9998
vn 0.9998 0.0020 -0.0195
vn -0.9998 -0.0020 0.0195
usemtl mouth
s off
f 82/141/61 83/142/61 81/143/61
f 84/144/62 87/145/62 83/142/62
f 88/146/63 85/147/63 87/145/63
f 86/148/64 81/149/64 85/147/64
f 87/145/65 81/150/65 83/151/65
f 84/152/66 86/148/66 88/146/66
f 82/141/61 84/144/61 83/142/61
f 84/144/62 88/146/62 87/145/62
f 88/146/63 86/148/63 85/147/63
f 86/148/64 82/153/64 81/149/64
f 87/145/65 85/147/65 81/150/65
f 84/152/66 82/154/66 86/148/66
